<svg xmlns="http://www.w3.org/2000/svg" width="23" height="13" viewBox="0 0 23 13">
  <defs>
    <style>
      .cls-1 {
        fill: #ccc;
        fill-rule: evenodd;
      }
    </style>
  </defs>
  <path id="icon" class="cls-1" d="M1376.8,3415.27c0.76,0.74,1.56,1.44,2.25,2.26a6.7,6.7,0,0,1,.81,1.16,0.839,0.839,0,0,1-.51,1.3h-3.36a2.6,2.6,0,0,1-2.13-.87c-0.46-.47-0.89-0.97-1.34-1.46a3.089,3.089,0,0,0-.6-0.54,0.71,0.71,0,0,0-1.12.27,3.675,3.675,0,0,0-.35,1.57,0.892,0.892,0,0,1-1.07,1.03,8.59,8.59,0,0,1-4.79-1.03,10.712,10.712,0,0,1-3.23-3.02,40.34,40.34,0,0,1-4.24-7.56c-0.27-.6-0.08-0.92.58-0.93,1.1-.02,2.19-0.02,3.28,0a0.96,0.96,0,0,1,.91.68,20.258,20.258,0,0,0,2.23,4.12,3.344,3.344,0,0,0,.84.92,0.5,0.5,0,0,0,.86-0.26,2.769,2.769,0,0,0,.2-0.86,13.258,13.258,0,0,0-.06-3.02,1.267,1.267,0,0,0-1.07-1.16c-0.32-.06-0.28-0.18-0.12-0.36a1.215,1.215,0,0,1,1.03-.51h3.78a0.9,0.9,0,0,1,.81.98l0.01,4.21a1.2,1.2,0,0,0,.53,1.07,0.748,0.748,0,0,0,.76-0.37,13.335,13.335,0,0,0,2.13-3.27c0.26-.52.48-1.06,0.69-1.6a0.819,0.819,0,0,1,.86-0.58h3.64a1.668,1.668,0,0,1,.32.02,0.636,0.636,0,0,1,.6.97,9.127,9.127,0,0,1-1.45,2.51c-0.61.84-1.26,1.65-1.86,2.5a1.134,1.134,0,0,0,.18,1.83h0Z" transform="translate(-1357 -3407)"/>
</svg>
