<svg xmlns="http://www.w3.org/2000/svg" width="15" height="15" viewBox="0 0 15 15">
  <defs>
    <style>
      .cls-1 {
        fill: #ccc;
        fill-rule: evenodd;
      }
    </style>
  </defs>
  <path id="icon" class="cls-1" d="M906.925,1453h11.15a1.876,1.876,0,0,1,1.925,1.92v11.15a1.878,1.878,0,0,1-1.925,1.93h-11.15a1.879,1.879,0,0,1-1.926-1.93v-11.15a1.876,1.876,0,0,1,1.926-1.92h0Zm9,1.67a0.673,0.673,0,0,0-.675.67v1.62a0.673,0.673,0,0,0,.675.67h1.695a0.674,0.674,0,0,0,.676-0.67v-1.62a0.674,0.674,0,0,0-.676-0.67h-1.695Zm2.378,4.67h-1.32a4.435,4.435,0,0,1,.192,1.29,4.665,4.665,0,0,1-9.326,0,4.4,4.4,0,0,1,.193-1.29h-1.378v6.34a0.6,0.6,0,0,0,.6.6h10.446a0.6,0.6,0,0,0,.6-0.6v-6.34h0Zm-5.791-1.79a2.921,2.921,0,1,0,3.013,2.92A2.963,2.963,0,0,0,912.514,1457.55Z" transform="translate(-905 -1453)"/>
</svg>
