<svg xmlns="http://www.w3.org/2000/svg" width="23" height="13" viewBox="0 0 23 13">
  <defs>
    <style>
      .cls-1 {
        fill: #48974c;
        fill-rule: evenodd;
      }
    </style>
  </defs>
  <path id="icon" class="cls-1" d="M768.8,1462.27a30.405,30.405,0,0,1,2.253,2.26,6.519,6.519,0,0,1,.807,1.16,0.835,0.835,0,0,1-.51,1.3h-3.351a2.6,2.6,0,0,1-2.133-.87c-0.464-.47-0.893-0.97-1.34-1.46a3.222,3.222,0,0,0-.6-0.54,0.707,0.707,0,0,0-1.116.27,3.511,3.511,0,0,0-.353,1.56,0.9,0.9,0,0,1-1.067,1.04,8.607,8.607,0,0,1-4.8-1.03,10.733,10.733,0,0,1-3.226-3.02,40.423,40.423,0,0,1-4.246-7.56c-0.268-.6-0.072-0.92.586-0.93q1.639-.03,3.281,0a0.968,0.968,0,0,1,.91.68,20.377,20.377,0,0,0,2.223,4.12,3.525,3.525,0,0,0,.84.92,0.508,0.508,0,0,0,.867-0.26,2.761,2.761,0,0,0,.193-0.86,12.762,12.762,0,0,0-.054-3.02,1.267,1.267,0,0,0-1.075-1.16c-0.32-.06-0.272-0.18-0.117-0.36a1.215,1.215,0,0,1,1.027-.51h3.787a0.9,0.9,0,0,1,.81.98l0,4.21a1.218,1.218,0,0,0,.534,1.07,0.747,0.747,0,0,0,.756-0.37,13.088,13.088,0,0,0,2.132-3.27c0.257-.52.477-1.06,0.691-1.6a0.813,0.813,0,0,1,.856-0.58h3.645a1.726,1.726,0,0,1,.322.02,0.634,0.634,0,0,1,.593.97,9.149,9.149,0,0,1-1.449,2.51c-0.608.84-1.258,1.65-1.861,2.5a1.138,1.138,0,0,0,.178,1.83h0Z" transform="translate(-749 -1454)"/>
</svg>
